<?xml version="1.0" encoding="UTF-8"?>
<!-- Generator: Blender, SVG Export for Grease Pencil - v1.0 -->
<!DOCTYPE svg PUBLIC "-//W3C//DTD SVG 1.1//EN" "http://www.w3.org/Graphics/SVG/1.1/DTD/svg11.dtd">
<svg version="1.0" x="0px" y="0px" xmlns="http://www.w3.org/2000/svg" width="930px" height="247px" viewBox="0 0 930 247">
	<g id="blender_frame_1">
		<g id="blender_object_LineArt">
			<!--Layer: Lines-->
			<g id="Lines">
				<polyline stroke="#000000" stroke-opacity="1" fill="none" stroke-linecap="round" stroke-width="2" points="38.308720,200.115051 38.308720,197.177979 38.308681,194.240845 38.308681,191.303772 38.308720,188.366699 38.308720,185.429565 38.308720,182.492432 38.308720,179.555420 38.308750,176.618286 38.308750,173.681152 38.308750,170.744080 38.308750,167.807007 38.308750,164.869873 38.308750,161.932800 38.308720,158.995728 38.308681,156.058594 38.308681,153.121460 38.308681,150.184387 38.308681,147.247314 38.308681,144.310181 38.308681,141.373108 38.308681,138.435974 38.308681,135.498901 38.308681,132.561798 38.308681,129.624695 38.308681,126.687592 38.308681,123.750519 38.308720,120.813385 38.308720,117.876312 38.308720,114.939178 38.308720,112.002106 38.308720,109.065002 38.308681,106.127899 38.308681,103.190796 38.308681,100.253723 38.308681,97.316589 38.308651,94.379517 38.308681,91.442383 38.308681,88.505310 38.308681,85.568207 38.308681,82.631104 38.308681,79.693970 38.308681,76.756897 38.308681,73.819794 38.308681,70.882660 38.308681,67.945618 38.308681,65.008484 38.308681,62.071381 38.308681,59.134308 38.308720,56.197205 38.308720,53.260071 38.308720,50.322998 38.436832,47.438965 40.513699,45.362122 42.590534,43.285278 44.667362,41.208374 46.744160,39.131531 49.340420,38.308716 52.277538,38.308716 55.214619,38.308716 58.151737,38.308716 61.088825,38.308716 64.025909,38.308716 66.962997,38.308716 69.900101,38.308716 72.837189,38.308716 75.774277,38.308716 78.711365,38.308716 81.648438,38.308716 84.585556,38.308716 87.522644,38.308716 90.459763,38.308716 93.396835,38.308716 96.333954,38.308716 99.271042,38.308716 102.208160,38.308716 105.145218,38.308716 108.082321,38.308716 111.019409,38.308716 113.956528,38.308716 116.893616,38.308716 119.830734,38.308716 122.767807,38.308716 125.704895,38.308716 128.642014,38.308716 131.579102,38.308716 134.516220,38.308716 137.453293,38.308716 140.390411,38.308716 143.327499,38.308716 146.264618,38.308716 149.201706,38.308716 152.138779,38.308716 155.075897,38.308716 158.012985,38.308716 160.950104,38.308716 163.887192,38.308716 166.824310,38.308716 169.761383,38.308716 172.698502,38.308716 175.635590,38.308716 178.572708,38.308716 181.509796,38.308716 184.446869,38.308716 187.383987,38.308655 190.321075,38.308655 193.258194,38.308655 196.195312,38.308655 199.132401,38.308655 202.069504,38.308655 205.006622,38.308716 207.943726,38.308716 210.880829,38.308716 213.817932,38.308716 216.755035,38.308716 219.692108,38.308716 222.629242,38.308716 225.566345,38.308716 228.503418,38.308716 231.440521,38.308716 234.377625,38.308716 237.314728,38.308716 240.251831,38.308716 243.188904,38.308716 246.126007,38.308716 249.063110,38.308716 252.000244,38.308716 254.937317,38.308716 257.874390,38.308716 260.811523,38.308716 263.748596,38.308716 266.685730,38.308716 269.622803,38.308716 272.559875,38.308716 275.497040,38.308716 278.434113,38.308716 281.371216,38.308655 284.308289,38.308655 287.245392,38.308655 290.182526,38.308655 293.119598,38.308655 296.056702,38.308655 298.993774,38.308655 301.930878,38.308655 304.868011,38.308655 307.805084,38.308655 310.742188,38.308655 313.679260,38.308655 316.616364,38.308655 319.553497,38.308655 322.490570,38.308655 325.427704,38.308655 328.364777,38.308655 331.301910,38.308655 334.238983,38.308655 337.176056,38.308655 340.113190,38.308655 343.050293,38.308655 345.987396,38.308655 348.924469,38.308655 351.861542,38.308655 354.798676,38.308655 357.735779,38.308655 360.672882,38.308655 363.609985,38.308655 366.547058,38.308655 369.484192,38.308655 372.421265,38.308655 375.358368,38.308655 378.295471,38.308655 381.232574,38.308655 384.169678,38.308655 387.106750,38.308655 390.043884,38.308655 392.980957,38.308655 395.918060,38.308655 398.855164,38.308655 401.792236,38.308655 404.729370,38.308655 407.666473,38.308655 410.603546,38.308655 413.540649,38.308655 416.477753,38.308655 419.414856,38.308655 422.351959,38.308655 425.289032,38.308655 428.226135,38.308655 431.163239,38.308655 434.100372,38.308655 437.037445,38.308655 439.974579,38.308655 442.911652,38.308655 445.848755,38.308655 448.785858,38.308655 451.722961,38.308655 454.660065,38.308655 457.597168,38.308655 460.534241,38.308655 463.471344,38.308655 466.408478,38.308655 469.345551,38.308655 472.282623,38.308655 475.219757,38.308655 478.156830,38.308655 481.093964,38.308655 484.031036,38.308655 486.968109,38.308655 489.905243,38.308655 492.842316,38.308655 495.779449,38.308655 498.716522,38.308655 501.653656,38.308655 504.590790,38.308655 507.527863,38.308655 510.464935,38.308655 513.402039,38.308655 516.339233,38.308655 519.276306,38.308655 522.213379,38.308655 525.150452,38.308655 528.087585,38.308655 531.024719,38.308655 533.961792,38.308655 536.898865,38.308655 539.835938,38.308655 542.773071,38.308655 545.710205,38.308655 548.647278,38.308655 551.584351,38.308655 554.521423,38.308655 557.458557,38.308655 560.395691,38.308655 563.332764,38.308655 566.269897,38.308655 569.206970,38.308655 572.144043,38.308655 575.081177,38.308655 578.018250,38.308655 580.955383,38.308655 583.892456,38.308655 586.829529,38.308655 589.766663,38.308655 592.703735,38.308655 595.640869,38.308655 598.577942,38.308655 601.515015,38.308655 604.452209,38.308655 607.389282,38.308655 610.326355,38.308655 613.263428,38.308655 616.200500,38.308655 619.137634,38.308655 622.074707,38.308655 625.011841,38.308655 627.948914,38.308655 630.885986,38.308655 633.823181,38.308655 636.760254,38.308655 639.697327,38.308655 642.634399,38.308716 645.571472,38.308716 648.508667,38.308716 651.445740,38.308716 654.382812,38.308716 657.319885,38.308716 660.256958,38.308716 663.194153,38.308716 666.131226,38.308716 669.068298,38.308716 672.005432,38.308716 674.942505,38.308716 677.879639,38.308716 680.816772,38.308716 683.753845,38.308716 686.690918,38.308716 689.628113,38.308716 692.565186,38.308716 695.502258,38.308716 698.439331,38.308716 701.376404,38.308716 704.313477,38.308716 707.250610,38.308716 710.187744,38.308716 713.124817,38.308716 716.061890,38.308716 718.999084,38.308716 721.936157,38.308716 724.873230,38.308716 727.810364,38.308716 730.747437,38.308716 733.684570,38.308716 736.621643,38.308716 739.558716,38.308716 742.495850,38.308716 745.432922,38.308716 748.370056,38.308716 751.307190,38.308716 754.244202,38.308716 757.181335,38.308716 760.118347,38.308716 763.055542,38.308716 765.992615,38.308716 768.929688,38.308716 771.866821,38.308716 774.803833,38.308716 777.741028,38.308716 780.678101,38.308716 783.615173,38.308716 786.552307,38.308716 789.489380,38.308716 792.426514,38.308716 795.363647,38.308716 798.300659,38.308716 801.237793,38.308716 804.174805,38.308716 807.112000,38.308716 810.049072,38.308716 812.986145,38.308716 815.923279,38.308716 818.860291,38.308716 821.797485,38.308716 824.734558,38.308716 827.671631,38.308716 830.608765,38.308716 833.545837,38.308716 836.482971,38.308716 839.420105,38.308716 842.357117,38.308716 845.294250,38.308716 848.231323,38.308716 851.168457,38.308716 854.105591,38.308716 857.042603,38.308716 859.979736,38.308716 862.916809,38.308716 865.853943,38.308716 868.791077,38.308716 871.728149,38.308716 874.665222,38.308716 877.602295,38.308716 880.539429,38.308716 883.384277,38.531311 885.461121,40.608154 887.537964,42.684998 889.614868,44.761902 891.691711,46.838684 892.419983,49.474121 892.420044,52.411224 892.420044,55.348297 892.420105,58.285400 892.420105,61.222534 892.420105,64.159637 892.420105,67.096710 892.420105,70.033844 892.420105,72.970947 892.420105,75.908020 892.420105,78.845123 892.420105,81.782257 892.420105,84.719299 892.420105,87.656433 892.420105,90.593536 892.420105,93.530609 892.420105,96.467712 892.420105,99.404846 892.420105,102.341919 892.420105,105.279022 892.420105,108.216125 892.420105,111.153229 892.420105,114.090302 892.420105,117.027435 892.420105,119.964508 892.420105,122.901611 892.420105,125.838715 892.420105,128.775818 892.420105,131.712921 892.420105,134.650024 892.420105,137.587128 892.420105,140.524170 892.420105,143.461304 892.420105,146.398438 892.420105,149.335510 892.420105,152.272583 892.420105,155.209717 892.420105,158.146790 892.420105,161.083923 892.420105,164.020996 892.420105,166.958130 892.420105,169.895203 892.420044,172.832275 892.419983,175.769409 892.419983,178.706543 892.419983,181.643616 892.419983,184.580688 892.419983,187.517822 892.419983,190.454895 892.419983,193.391968 892.419983,196.329102 892.419983,199.266235 890.943359,201.591675 888.866577,203.668518 886.789734,205.745361 884.712830,207.822266 882.418335,209.373413 879.481140,209.373413 876.544128,209.373413 873.606995,209.373413 870.669861,209.373413 867.732849,209.373413 864.795654,209.373413 861.858582,209.373413 858.921509,209.373413 855.984375,209.373413 853.047302,209.373413 850.110168,209.373413 847.173096,209.373413 844.236023,209.373413 841.298889,209.373413 838.361816,209.373413 835.424683,209.373413 832.487549,209.373413 829.550476,209.373413 826.613403,209.373413 823.676208,209.373413 820.739136,209.373413 817.802063,209.373413 814.864929,209.373413 811.927795,209.373413 808.990723,209.373413 806.053589,209.373413 803.116577,209.373474 800.179443,209.373474 797.242371,209.373474 794.305237,209.373474 791.368103,209.373474 788.431091,209.373474 785.493958,209.373474 782.556885,209.373474 779.619751,209.373474 776.682617,209.373474 773.745544,209.373474 770.808472,209.373474 767.871399,209.373474 764.934265,209.373474 761.997131,209.373474 759.060120,209.373474 756.122986,209.373474 753.185913,209.373474 750.248779,209.373474 747.311646,209.373474 744.374634,209.373474 741.437500,209.373474 738.500366,209.373413 735.563232,209.373413 732.626160,209.373413 729.689026,209.373413 726.751953,209.373413 723.814880,209.373413 720.877747,209.373413 717.940674,209.373413 715.003540,209.373413 712.066467,209.373413 709.129395,209.373413 706.192200,209.373413 703.255127,209.373413 700.318054,209.373413 697.380981,209.373413 694.443909,209.373413 691.506714,209.373413 688.569641,209.373413 685.632568,209.373413 682.695435,209.373413 679.758301,209.373413 676.821228,209.373413 673.884155,209.373413 670.947083,209.373413 668.009949,209.373413 665.072815,209.373413 662.135742,209.373413 659.198608,209.373413 656.261536,209.373413 653.324463,209.373413 650.387329,209.373413 647.450256,209.373413 644.513123,209.373413 641.576050,209.373413 638.638977,209.373413 635.701782,209.373413 632.764709,209.373474 629.827637,209.373413 626.890564,209.373474 623.953491,209.373413 621.016296,209.373413 618.079224,209.373413 615.142151,209.373413 612.205017,209.373413 609.268005,209.373413 606.330811,209.373413 603.393738,209.373413 600.456665,209.373413 597.519592,209.373413 594.582458,209.373413 591.645325,209.373413 588.708252,209.373413 585.771179,209.373413 582.834045,209.373413 579.896973,209.373413 576.959839,209.373413 574.022766,209.373413 571.085632,209.373413 568.148560,209.373413 565.211487,209.373413 562.274353,209.373413 559.337219,209.373413 556.400146,209.373413 553.463074,209.373413 550.526001,209.373413 547.588806,209.373413 544.651733,209.373413 541.714661,209.373413 538.777588,209.373413 535.840454,209.373413 532.903320,209.373413 529.966248,209.373413 527.029175,209.373413 524.092041,209.373413 521.154968,209.373413 518.217834,209.373413 515.280762,209.373413 512.343689,209.373413 509.406525,209.373413 506.469452,209.373413 503.532318,209.373413 500.595245,209.373413 497.658112,209.373413 494.721039,209.373413 491.783966,209.373413 488.846832,209.373413 485.909760,209.373413 482.972626,209.373413 480.035553,209.373413 477.098419,209.373413 474.161346,209.373413 471.224213,209.373413 468.287140,209.373413 465.350006,209.373413 462.412933,209.373413 459.475830,209.373413 456.538727,209.373413 453.601654,209.373413 450.664520,209.373413 447.727417,209.373413 444.790344,209.373413 441.853241,209.373413 438.916138,209.373413 435.979034,209.373413 433.041931,209.373413 430.104858,209.373413 427.167725,209.373413 424.230652,209.373413 421.293518,209.373413 418.356445,209.373413 415.419373,209.373413 412.482239,209.373413 409.545135,209.373413 406.608032,209.373413 403.670959,209.373413 400.733826,209.373413 397.796722,209.373413 394.859650,209.373413 391.922546,209.373413 388.985443,209.373413 386.048340,209.373413 383.111237,209.373413 380.174164,209.373413 377.237030,209.373413 374.299957,209.373413 371.362823,209.373413 368.425751,209.373413 365.488647,209.373413 362.551544,209.373413 359.614441,209.373413 356.677338,209.373413 353.740234,209.373413 350.803162,209.373413 347.866028,209.373413 344.928955,209.373413 341.991852,209.373413 339.054749,209.373413 336.117615,209.373413 333.180542,209.373413 330.243469,209.373413 327.306335,209.373413 324.369263,209.373413 321.432129,209.373413 318.495056,209.373413 315.557983,209.373413 312.620850,209.373413 309.683746,209.373413 306.746643,209.373413 303.809570,209.373413 300.872498,209.373413 297.935364,209.373413 294.998260,209.373413 292.061157,209.373413 289.124084,209.373413 286.187012,209.373413 283.249878,209.373413 280.312775,209.373413 277.375671,209.373413 274.438599,209.373413 271.501495,209.373413 268.564362,209.373413 265.627289,209.373413 262.690186,209.373413 259.753113,209.373413 256.816010,209.373413 253.878876,209.373413 250.941803,209.373413 248.004669,209.373413 245.067566,209.373413 242.130493,209.373413 239.193390,209.373413 236.256287,209.373413 233.319153,209.373413 230.382080,209.373413 227.445007,209.373413 224.507874,209.373413 221.570831,209.373413 218.633698,209.373413 215.696655,209.373413 212.759583,209.373413 209.822479,209.373413 206.885376,209.373413 203.948257,209.373413 201.011139,209.373413 198.074020,209.373413 195.136932,209.373413 192.199860,209.373413 189.262772,209.373413 186.325684,209.373413 183.388565,209.373413 180.451447,209.373413 177.514328,209.373413 174.577255,209.373413 171.640167,209.373413 168.703079,209.373413 165.765961,209.373413 162.828888,209.373413 159.891800,209.373413 156.954681,209.373413 154.017593,209.373413 151.080475,209.373413 148.143356,209.373413 145.206253,209.373413 142.269165,209.373413 139.332077,209.373413 136.394928,209.373413 133.457840,209.373413 130.520721,209.373413 127.583649,209.373413 124.646530,209.373413 121.709442,209.373413 118.772354,209.373413 115.835236,209.373474 112.898193,209.373413 109.961105,209.373413 107.023987,209.373413 104.086899,209.373413 101.149826,209.373413 98.212708,209.373413 95.275620,209.373413 92.338501,209.373413 89.401413,209.373413 86.464310,209.373413 83.527252,209.373413 80.590103,209.373413 77.653015,209.373413 74.715912,209.373413 71.778824,209.373413 68.841736,209.373413 65.904617,209.373413 62.967503,209.373413 60.030384,209.373413 57.093304,209.373413 54.156216,209.373413 51.219097,209.373413 48.282017,209.373413 45.995777,207.802124 43.918911,205.725342 41.842083,203.648438 39.765247,201.571655 38.929012,200.735352 41.005848,202.812256 43.082676,204.889038 45.159542,206.965942 47.236370,209.042725 50.036495,209.373413 52.973576,209.373413 55.910664,209.373413 58.847813,209.373413 61.784893,209.373413 64.722015,209.373413 67.659103,209.373413 70.596176,209.373413 73.533264,209.373413 76.470383,209.373413 79.407501,209.373413 82.344574,209.373413 85.281723,209.373413 88.218811,209.373413 91.155930,209.373413 94.093018,209.373413 97.030136,209.373413 99.967239,209.373413 102.904327,209.373413 105.841446,209.373413 108.778534,209.373413 111.715622,209.373413 114.652725,209.373413 117.589813,209.373413 120.526932,209.373413 123.464020,209.373413 126.401169,209.373413 129.338257,209.373413 132.275330,209.373413 135.212448,209.373413 138.149536,209.373413 141.086655,209.373413 144.023743,209.373413 146.960861,209.373413 149.897934,209.373413 152.835052,209.373413 155.772141,209.373413 158.709259,209.373413 161.646347,209.373413 164.583420,209.373413 167.520538,209.373413 170.457657,209.373413 173.394775,209.373413 176.331863,209.373413 179.268982,209.373413 182.206055,209.373413 185.143143,209.373413 188.080231,209.373413 191.017349,209.373413 193.954422,209.373413 196.891510,209.373413 199.828629,209.373413 202.765747,209.373413 205.702835,209.373413 208.639923,209.373413 211.576996,209.373413 214.514130,209.373413 217.451233,209.373413 220.388306,209.373413 223.325409,209.373413 226.262512,209.373413 229.199646,209.373413 232.136719,209.373413 235.073792,209.373413 238.010895,209.373413 240.948029,209.373413 243.885132,209.373413 246.822205,209.373413 249.759277,209.373413 252.696411,209.373413 255.633514,209.373413 258.570618,209.373413 261.507690,209.373413 264.444794,209.373413 267.381927,209.373413 270.319000,209.373413 273.256104,209.373413 276.193207,209.373413 279.130280,209.373413 282.067413,209.373413 285.004486,209.373413 287.941620,209.373413 290.878723,209.373413 293.815826,209.373413 296.752899,209.373413 299.689972,209.373413 302.627106,209.373413 305.564209,209.373413 308.501312,209.373413 311.438385,209.373413 314.375488,209.373413 317.312622,209.373413 320.249695,209.373413 323.186798,209.373413 326.123871,209.373474 329.060974,209.373474 331.998108,209.373474 334.935181,209.373474 337.872314,209.373474 340.809387,209.373474 343.746490,209.373474 346.683594,209.373474 349.620697,209.373474 352.557831,209.373474 355.494904,209.373474 358.431976,209.373474 361.369110,209.373474 364.306183,209.373474 367.243317,209.373474 370.180389,209.373474 373.117462,209.373474 376.054596,209.373474 378.991699,209.373474 381.928802,209.373474 384.865875,209.373474 387.802979,209.373474 390.740082,209.373474 393.677185,209.373474 396.614288,209.373474 399.551392,209.373474 402.488464,209.373474 405.425598,209.373474 408.362671,209.373474 411.299774,209.373474 414.236877,209.373474 417.174011,209.373474 420.111084,209.373474 423.048187,209.373474 425.985291,209.373474 428.922394,209.373474 431.859497,209.373474 434.796600,209.373474 437.733673,209.373474 440.670807,209.373474 443.607880,209.373474 446.544983,209.373474 449.482086,209.373474 452.419189,209.373474 455.356293,209.373474 458.293365,209.373474 461.230499,209.373474 464.167572,209.373474 467.104706,209.373474 470.041779,209.373474 472.978912,209.373474 475.915985,209.373474 478.853119,209.373474 481.790192,209.373474 484.727264,209.373474 487.664398,209.373474 490.601471,209.373474 493.538605,209.373474 496.475677,209.373474 499.412811,209.373474 502.349884,209.373474 505.286957,209.373474 508.224091,209.373474 511.161163,209.373474 514.098328,209.373474 517.035400,209.373474 519.972473,209.373474 522.909607,209.373474 525.846741,209.373474 528.783813,209.373474 531.720886,209.373474 534.658020,209.373474 537.595154,209.373474 540.532227,209.373474 543.469299,209.373474 546.406372,209.373474 549.343506,209.373474 552.280640,209.373474 555.217712,209.373474 558.154846,209.373474 561.091919,209.373474 564.028992,209.373474 566.966125,209.373474 569.903198,209.373474 572.840332,209.373474 575.777405,209.373474 578.714478,209.373474 581.651611,209.373474 584.588684,209.373474 587.525818,209.373474 590.462891,209.373474 593.399963,209.373474 596.337158,209.373474 599.274231,209.373474 602.211304,209.373474 605.148376,209.373474 608.085449,209.373474 611.022644,209.373474 613.959717,209.373474 616.896790,209.373474 619.833862,209.373474 622.770935,209.373474 625.708130,209.373474 628.645203,209.373474 631.582275,209.373474 634.519409,209.373474 637.456543,209.373474 640.393616,209.373474 643.330688,209.373474 646.267761,209.373413 649.204895,209.373413 652.142029,209.373474 655.079102,209.373474 658.016174,209.373413 660.953247,209.373413 663.890381,209.373413 666.827515,209.373413 669.764587,209.373413 672.701721,209.373413 675.638794,209.373413 678.575867,209.373413 681.513062,209.373413 684.450134,209.373413 687.387207,209.373413 690.324341,209.373413 693.261414,209.373413 696.198547,209.373413 699.135620,209.373413 702.072693,209.373413 705.009827,209.373413 707.946899,209.373413 710.884033,209.373413 713.821167,209.373413 716.758179,209.373413 719.695312,209.373413 722.632385,209.373413 725.569519,209.373413 728.506592,209.373413 731.443665,209.373413 734.380798,209.373413 737.317871,209.373413 740.255005,209.373413 743.192139,209.373413 746.129211,209.373413 749.066284,209.373413 752.003357,209.373413 754.940491,209.373413 757.877625,209.373413 760.814697,209.373413 763.751770,209.373413 766.688904,209.373413 769.625977,209.373413 772.563110,209.373413 775.500244,209.373413 778.437317,209.373413 781.374390,209.373413 784.311584,209.373413 787.248596,209.373413 790.185730,209.373413 793.122864,209.373413 796.059875,209.373413 798.997070,209.373413 801.934143,209.373413 804.871216,209.373413 807.808350,209.373413 810.745361,209.373413 813.682556,209.373413 816.619629,209.373413 819.556702,209.373413 822.493774,209.373413 825.430847,209.373413 828.367981,209.373413 831.305054,209.373413 834.242188,209.373413 837.179260,209.373413 840.116333,209.373413 843.053528,209.373413 845.990540,209.373413 848.927673,209.373413 851.864807,209.373413 854.801880,209.373413 857.739014,209.373413 860.676086,209.373413 863.613159,209.373413 866.550293,209.373413 869.487427,209.373413 872.424500,209.373413 875.361633,209.373413 878.298706,209.373413 881.235779,209.373413 883.876770,208.658325 885.953552,206.581543 888.030396,204.504639 890.107300,202.427856 892.184082,200.350952 892.419983,197.511597 892.419983,194.574463 892.419983,191.637390 892.419983,188.700317 892.419983,185.763184 892.419983,182.826111 892.419983,179.888977 892.419983,176.951904 892.419983,174.014771 892.419983,171.077637 892.419983,168.140625 892.419983,165.203491 892.419983,162.266357 892.419983,159.329285 892.419983,156.392212 892.419983,153.455078 892.419983,150.518005 892.420044,147.580933 892.420044,144.643799 892.420044,141.706665 892.420044,138.769623 892.420044,135.832489 892.419983,132.895416 892.419983,129.958282 892.419983,127.021210 892.419983,124.084106 892.419983,121.147003 892.419983,118.209900 892.419983,115.272797 892.419983,112.335693 892.419983,109.398590 892.419983,106.461487 892.419983,103.524384 892.419983,100.587311 892.419983,97.650177 892.419983,94.713135 892.419983,91.776001 892.419983,88.838898 892.419983,85.901764 892.419983,82.964722 892.419983,80.027588 892.419983,77.090485 892.419983,74.153412 892.419983,71.216309 892.419983,68.279175 892.419983,65.342133 892.419983,62.404999 892.419983,59.467896 892.419983,56.530823 892.419983,53.593689 892.419983,50.656616 892.419983,47.719543 890.450989,45.598022 888.374207,43.521179 886.297241,41.444336 884.220459,39.367493 881.721924,38.308716 878.784912,38.308716 875.847717,38.308716 872.910706,38.308716 869.973572,38.308716 867.036499,38.308716 864.099426,38.308716 861.162292,38.308716 858.225220,38.308716 855.288086,38.308716 852.351013,38.308716 849.413940,38.308716 846.476746,38.308716 843.539734,38.308716 840.602600,38.308716 837.665588,38.308716 834.728455,38.308716 831.791321,38.308716 828.854248,38.308716 825.917175,38.308716 822.980103,38.308716 820.042969,38.308716 817.105957,38.308716 814.168762,38.308716 811.231689,38.308716 808.294617,38.308716 805.357483,38.308716 802.420349,38.308716 799.483276,38.308716 796.546204,38.308716 793.609131,38.308716 790.671997,38.308716 787.734985,38.308716 784.797791,38.308716 781.860718,38.308716 778.923645,38.308716 775.986511,38.308716 773.049500,38.308716 770.112305,38.308716 767.175232,38.308716 764.238098,38.308716 761.301025,38.308716 758.363831,38.308716 755.426758,38.308716 752.489685,38.308716 749.552551,38.308716 746.615540,38.308716 743.678345,38.308716 740.741272,38.308716 737.804199,38.308716 734.867065,38.308716 731.929993,38.308716 728.992859,38.308716 726.055786,38.308716 723.118713,38.308716 720.181641,38.308716 717.244568,38.308716 714.307373,38.308716 711.370300,38.308716 708.433228,38.308716 705.496094,38.308716 702.559021,38.308716 699.621887,38.308716 696.684753,38.308716 693.747681,38.308716 690.810608,38.308716 687.873535,38.308716 684.936401,38.308716 681.999268,38.308716 679.062195,38.308716 676.125122,38.308716 673.188049,38.308716 670.250916,38.308716 667.313782,38.308716 664.376709,38.308716 661.439636,38.308716 658.502563,38.308716 655.565430,38.308716 652.628296,38.308716 649.691223,38.308716 646.754150,38.308716 643.817017,38.308716 640.879883,38.308716 637.942810,38.308716 635.005737,38.308716 632.068665,38.308716 629.131531,38.308716 626.194397,38.308716 623.257324,38.308716 620.320251,38.308716 617.383179,38.308716 614.446045,38.308716 611.508911,38.308716 608.571838,38.308716 605.634766,38.308716 602.697693,38.308716 599.760559,38.308716 596.823425,38.308716 593.886353,38.308716 590.949219,38.308716 588.012146,38.308716 585.075073,38.308716 582.137878,38.308716 579.200806,38.308716 576.263733,38.308716 573.326660,38.308716 570.389587,38.308716 567.452393,38.308716 564.515320,38.308716 561.578247,38.308716 558.641113,38.308716 555.703979,38.308716 552.766907,38.308716 549.829834,38.308716 546.892761,38.308716 543.955627,38.308716 541.018494,38.308716 538.081421,38.308716 535.144287,38.308716 532.207214,38.308716 529.270142,38.308716 526.333008,38.308716 523.395874,38.308716 520.458801,38.308716 517.521729,38.308716 514.584656,38.308716 511.647430,38.308716 508.710358,38.308716 505.773285,38.308716 502.836212,38.308716 499.899078,38.308716 496.961945,38.308716 494.024872,38.308716 491.087738,38.308716 488.150665,38.308716 485.213593,38.308716 482.276459,38.308716 479.339386,38.308716 476.402252,38.308716 473.465179,38.308716 470.528107,38.308716 467.590973,38.308716 464.653900,38.308716 461.716797,38.308716 458.779663,38.308716 455.842590,38.308716 452.905487,38.308716 449.968384,38.308716 447.031281,38.308716 444.094177,38.308716 441.157074,38.308716 438.220001,38.308716 435.282867,38.308716 432.345795,38.308716 429.408691,38.308716 426.471588,38.308716 423.534485,38.308716 420.597382,38.308716 417.660309,38.308716 414.723175,38.308716 411.786072,38.308716 408.848999,38.308716 405.911896,38.308716 402.974792,38.308716 400.037659,38.308716 397.100586,38.308716 394.163513,38.308716 391.226379,38.308716 388.289307,38.308716 385.352173,38.308716 382.415100,38.308716 379.478027,38.308716 376.540894,38.308716 373.603790,38.308716 370.666687,38.308716 367.729614,38.308716 364.792480,38.308716 361.855408,38.308716 358.918304,38.308716 355.981201,38.308716 353.044098,38.308716 350.106964,38.308716 347.169891,38.308716 344.232819,38.308716 341.295685,38.308716 338.358612,38.308716 335.421478,38.308716 332.484406,38.308716 329.547333,38.308716 326.610199,38.308716 323.673096,38.308716 320.735992,38.308716 317.798889,38.308716 314.861786,38.308716 311.924683,38.308716 308.987610,38.308716 306.050507,38.308716 303.113434,38.308716 300.176331,38.308716 297.239197,38.308716 294.302124,38.308716 291.364990,38.308716 288.427887,38.308716 285.490784,38.308716 282.553711,38.308716 279.616638,38.308716 276.679504,38.308716 273.742401,38.308716 270.805298,38.308716 267.868225,38.308716 264.931091,38.308716 261.993988,38.308716 259.056915,38.308716 256.119751,38.308716 253.182678,38.308716 250.245605,38.308716 247.308502,38.308716 244.371429,38.308716 241.434296,38.308716 238.497192,38.308716 235.560120,38.308716 232.623016,38.308716 229.685913,38.308716 226.748779,38.308716 223.811707,38.308716 220.874603,38.308716 217.937469,38.308716 215.000427,38.308716 212.063293,38.308716 209.126221,38.308716 206.189133,38.308716 203.252014,38.308716 200.314896,38.308716 197.377823,38.308716 194.440735,38.308716 191.503616,38.308716 188.566559,38.308716 185.629456,38.308716 182.692368,38.308716 179.755249,38.308716 176.818161,38.308716 173.881042,38.308716 170.943970,38.308716 168.006882,38.308716 165.069794,38.308716 162.132706,38.308716 159.195587,38.308716 156.258514,38.308716 153.321396,38.308716 150.384308,38.308716 147.447189,38.308716 144.510101,38.308716 141.572998,38.308716 138.635910,38.308716 135.698792,38.308716 132.761703,38.308716 129.824615,38.308716 126.887512,38.308716 123.950424,38.308716 121.013306,38.308716 118.076218,38.308716 115.139099,38.308716 112.202026,38.308716 109.264908,38.308716 106.327820,38.308716 103.390701,38.308716 100.453613,38.308716 97.516541,38.308716 94.579422,38.308716 91.642303,38.308716 88.705215,38.308716 85.768158,38.308716 82.831039,38.308716 79.893967,38.308716 76.956848,38.308716 74.019730,38.308716 71.082642,38.308716 68.145538,38.308716 65.208450,38.308716 62.271328,38.308716 59.334248,38.308716 56.397129,38.308716 53.460049,38.308716 50.522930,38.308716 47.585842,38.308716 45.503498,40.372253 43.426632,42.449097 41.349804,44.525940 39.272938,46.602783 38.308720,49.140503 38.308681,52.077606 38.308681,55.014679 38.308681,57.951782 38.308681,60.888916 38.308681,63.826019 38.308681,66.763092 38.308681,69.700195 38.308681,72.637329 38.308681,75.574371 38.308720,78.511505 38.308720,81.448608 38.308720,84.385681 38.308750,87.322815 38.308750,90.259918 38.308720,93.196991 38.308720,96.134094 38.308720,99.071228 38.308720,102.008301 38.308720,104.945404 38.308720,107.882507 38.308720,110.819611 38.308720,113.756683 38.308720,116.693817 38.308720,119.630890 38.308720,122.567993 38.308720,125.505096 38.308750,128.442200 38.308750,131.379272 38.308750,134.316406 38.308750,137.253479 38.308750,140.190552 38.308750,143.127686 38.308750,146.064819 38.308750,149.001892 38.308750,151.938965 38.308720,154.876099 38.308720,157.813232 38.308720,160.750305 38.308720,163.687378 38.308720,166.624512 38.308681,169.561584 38.308720,172.498718 38.308720,175.435791 38.308720,178.372925 38.308720,181.309998 38.308720,184.247070 38.308720,187.184204 38.308720,190.121277 38.308720,193.058350 38.308720,195.995483 38.308720,198.932617 36.771053,200.751953 34.197147,201.818115 31.623249,202.884277 29.049343,203.950439 26.475399,205.016602 23.901493,206.082764 21.327595,207.148926 18.753689,208.215088 16.179745,209.281250 13.605843,210.347351 11.031937,211.413513 10.000000,211.840942" />
				<polyline stroke="#000000" stroke-opacity="1" fill="none" stroke-linecap="round" stroke-width="2" points="10.000000,35.841187 12.076832,33.764343 14.153660,31.687500 16.230526,29.610657 18.307354,27.533813 20.384190,25.456970 22.461018,23.380127 24.537884,21.303345 26.614712,19.226501 28.691578,17.149658 30.768444,15.072754 32.845272,12.995911 34.922108,10.919067 37.478489,10.000000 40.415600,10.000000 43.352688,10.000000 46.289806,10.000000 49.226856,10.000000 52.163975,10.000000 55.101025,10.000000 58.038105,10.000000 60.975193,10.000000 63.912312,10.000000 66.849396,10.000000 69.786514,10.000000 72.723587,10.000000 75.660706,10.000000 78.597794,10.000000 81.534912,10.000000 84.472031,10.000000 87.409103,10.000000 90.346222,10.000000 93.283310,10.000000 96.220428,10.000000 99.157516,10.000000 102.094635,10.000000 105.031708,10.000000 107.968796,10.000000 110.905914,10.000000 113.843002,10.000000 116.780121,10.000000 119.717194,10.000000 122.654312,10.000000 125.591400,10.000000 128.528519,10.000000 131.465637,10.000000 134.402710,10.000000 137.339828,10.000000 140.276917,10.000000 143.214035,10.000000 146.151123,10.000000 149.088242,10.000000 152.025314,10.000000 154.962433,10.000000 157.899490,10.000000 160.836609,10.000000 163.773651,10.000000 166.710770,10.000000 169.647858,10.000000 172.584976,10.000000 175.522064,10.000000 178.459137,10.000000 181.396255,10.000000 184.333344,10.000000 187.270432,10.000000 190.207504,10.000000 193.144653,10.000000 196.081741,10.000000 199.018829,10.000000 201.955948,10.000000 204.893066,10.000000 207.830139,10.000000 210.767242,10.000000 213.704315,10.000000 216.641388,10.000000 219.578522,10.000000 222.515625,10.000000 225.452728,10.000000 228.389801,10.000000 231.326904,10.000000 234.264008,10.000000 237.201111,10.000000 240.138214,10.000000 243.075317,10.000000 246.012421,10.000000 248.949524,10.000000 251.886597,10.000000 254.823730,10.000000 257.760834,10.000000 260.697906,10.000000 263.635040,10.000000 266.572144,10.000000 269.509247,10.000000 272.446350,10.000000 275.383484,10.000000 278.320557,10.000000 281.257629,10.000000 284.194763,10.000000 287.131866,10.000000 290.068970,10.000000 293.006042,10.000000 295.943115,10.000000 298.880249,10.000000 301.817352,10.000000 304.754456,10.000000 307.691528,10.000000 310.628632,10.000000 313.565765,10.000000 316.502838,10.000000 319.439941,10.000000 322.377045,10.000000 325.314178,10.000000 328.251251,10.000000 331.188354,10.000000 334.125488,10.000000 337.062561,10.000000 339.999664,10.000000 342.936768,10.000000 345.873840,10.000000 348.810974,10.000000 351.748047,10.000000 354.685150,10.000000 357.622253,10.000000 360.559326,10.000000 363.496460,10.000000 366.433563,10.000000 369.370667,10.000000 372.307770,10.000000 375.244843,10.000000 378.181946,10.000000 381.119049,10.000000 384.056183,10.000000 386.993256,10.000000 389.930359,10.000000 392.867462,10.000000 395.804565,10.000000 398.741669,10.000000 401.678772,10.000000 404.615875,10.000000 407.552979,10.000000 410.490051,10.000000 413.427185,10.000000 416.364258,10.000000 419.301392,10.000000 422.238464,10.000000 425.175537,10.000000 428.112671,10.000000 431.049744,10.000000 433.986877,10.000000 436.923950,10.000000 439.861053,10.000000 442.798157,10.000000 445.735260,10.000000 448.672363,10.000000 451.609467,10.000000 454.546539,10.000000 457.483673,10.000000 460.420746,10.000000 463.357880,10.000000 466.294952,10.000000 469.232086,10.000000 472.169159,10.000000 475.106293,10.000000 478.043365,10.000000 480.980499,10.000000 483.917572,10.000000 486.854645,10.000000 489.791779,10.000000 492.728851,10.000000 495.665985,10.000000 498.603058,10.000000 501.540192,10.000000 504.477264,10.000000 507.414337,10.000000 510.351471,10.000000 513.288574,10.000000 516.225708,10.000000 519.162781,10.000000 522.099854,10.000000 525.036987,10.000000 527.974121,10.000000 530.911194,10.000000 533.848267,10.000000 536.785339,10.000000 539.722534,10.000000 542.659607,10.000000 545.596680,10.000000 548.533752,10.000000 551.470886,10.000000 554.408020,10.000000 557.345093,10.000000 560.282166,10.000000 563.219238,10.000000 566.156372,10.000000 569.093506,10.000000 572.030579,10.000000 574.967651,10.000000 577.904785,10.000000 580.841858,10.000000 583.778992,10.000000 586.716064,10.000000 589.653198,10.000000 592.590271,10.000000 595.527344,10.000000 598.464478,10.000000 601.401611,10.000000 604.338684,10.000000 607.275757,10.000000 610.212952,10.000000 613.150024,10.000000 616.087097,10.000000 619.024170,10.000000 621.961243,10.000000 624.898438,10.000000 627.835510,10.000000 630.772583,10.000000 633.709656,10.000000 636.646729,10.000000 639.583923,10.000000 642.520996,10.000000 645.458069,10.000000 648.395142,10.000000 651.332214,10.000000 654.269409,10.000000 657.206482,10.000000 660.143555,10.000000 663.080688,10.000000 666.017761,10.000000 668.954895,10.000000 671.892029,10.000000 674.829102,10.000000 677.766174,10.000000 680.703247,10.000000 683.640381,10.000000 686.577515,10.000000 689.514587,10.000000 692.451660,10.000000 695.388733,10.000000 698.325867,10.000000 701.263000,10.000000 704.200073,10.000000 707.137207,10.000000 710.074280,10.000000 713.011414,10.000000 715.948486,10.000000 718.885620,10.000000 721.822693,10.000000 724.759766,10.000000 727.696960,10.000000 730.634033,10.000000 733.571106,10.000000 736.508179,10.000000 739.445251,10.000000 742.382446,10.000000 745.319519,10.000000 748.256592,10.000000 751.193726,10.000000 754.130798,10.000000 757.067932,10.000000 760.005066,10.000000 762.942139,10.000000 765.879211,10.000000 768.816406,10.000000 771.753479,10.000000 774.690552,10.000000 777.627686,10.000000 780.564758,10.000000 783.501892,10.000000 786.438965,10.000000 789.376038,10.000000 792.313171,10.000000 795.250244,10.000000 798.187378,10.000000 801.124451,10.000000 804.061584,10.000000 806.998657,10.000000 809.935791,10.000000 812.872864,10.000000 815.809998,10.000000 818.747070,10.000000 821.684143,10.000000 824.621277,10.000000 827.558350,10.000000 830.495483,10.000000 833.432556,10.000000 836.369629,10.000000 839.306763,10.000000 842.243896,10.000000 845.180969,10.000000 848.118103,10.000000 851.055176,10.000000 853.992249,10.000000 856.929443,10.000000 859.866455,10.000000 862.803589,10.000000 865.740723,10.000000 868.677734,10.000000 871.614929,10.000000 874.552002,10.000000 877.489075,10.000000 880.426208,10.000000 883.363220,10.000000 886.300415,10.000000 889.237488,10.000000 892.174561,10.000000 895.046082,10.158508 897.122864,12.235352 899.199707,14.312256 901.276611,16.389038 903.353394,18.465881 905.430176,20.542725 907.507080,22.619568 909.583923,24.696411 911.660706,26.773254 913.737549,28.850098 915.814453,30.926941 917.891235,33.003784 919.968079,35.080566 920.728699,37.702637 920.728699,40.639709 920.728699,43.576843 920.728699,46.513916 920.728699,49.451050 920.728699,52.388153 920.728699,55.325195 920.728699,58.262329 920.728699,61.199432 920.728699,64.136505 920.728699,67.073608 920.728699,70.010742 920.728699,72.947784 920.728699,75.884918 920.728699,78.822021 920.728699,81.759155 920.728699,84.696198 920.728699,87.633331 920.728699,90.570435 920.728699,93.507507 920.728699,96.444611 920.728699,99.381714 920.728699,102.318817 920.728699,105.255920 920.728699,108.193024 920.728699,111.130127 920.728699,114.067230 920.728699,117.004303 920.728699,119.941437 920.728699,122.878510 920.728699,125.815613 920.728699,128.752716 920.728699,131.689819 920.728699,134.626923 920.728699,137.564026 920.728699,140.501099 920.728699,143.438232 920.728699,146.375305 920.728699,149.312378 920.728699,152.249512 920.728699,155.186646 920.728699,158.123657 920.728699,161.060791 920.728699,163.997925 920.728699,166.934998 920.728699,169.872131 920.728699,172.809204 920.728699,175.746338 920.728699,178.683411 920.728699,181.620483 920.728699,184.557617 920.728699,187.494751 920.728699,190.431763 920.728699,193.368896 920.728699,196.305969 920.728699,199.243103 920.728699,202.180176 920.728699,205.117310 920.728699,208.054382 920.728699,210.991455 919.252502,213.317139 917.175659,215.393982 915.098877,217.470825 913.021973,219.547668 910.945129,221.624512 908.868347,223.701355 906.791443,225.778198 904.714600,227.855042 902.637817,229.931885 900.560913,232.008728 898.484070,234.085571 896.407288,236.162415 894.099670,237.682129 891.162537,237.682129 888.225464,237.682129 885.288391,237.682129 882.351196,237.682129 879.414185,237.682129 876.477051,237.682129 873.539917,237.682129 870.602905,237.682129 867.665710,237.682129 864.728577,237.682129 861.791504,237.682129 858.854431,237.682129 855.917358,237.682129 852.980225,237.682129 850.043091,237.682129 847.105957,237.682129 844.168945,237.682129 841.231750,237.682129 838.294678,237.682129 835.357605,237.682129 832.420471,237.682129 829.483459,237.682129 826.546265,237.682129 823.609192,237.682129 820.672119,237.682129 817.734985,237.682129 814.797913,237.682129 811.860779,237.682129 808.923645,237.682129 805.986633,237.682129 803.049500,237.682129 800.112427,237.682129 797.175293,237.682129 794.238159,237.682129 791.301086,237.682129 788.364014,237.682129 785.426941,237.682129 782.489807,237.682129 779.552673,237.682129 776.615662,237.682129 773.678528,237.682129 770.741394,237.682129 767.804260,237.682129 764.867188,237.682129 761.930054,237.682129 758.993042,237.682129 756.055908,237.682129 753.118835,237.682129 750.181702,237.682129 747.244629,237.682129 744.307556,237.682129 741.370422,237.682129 738.433289,237.682129 735.496216,237.682129 732.559143,237.682129 729.622070,237.682129 726.684937,237.682129 723.747803,237.682129 720.810730,237.682129 717.873657,237.682129 714.936584,237.682129 711.999451,237.682129 709.062317,237.682129 706.125244,237.682129 703.188110,237.682129 700.251099,237.682129 697.313965,237.682129 694.376831,237.682129 691.439758,237.682129 688.502625,237.682129 685.565552,237.682129 682.628479,237.682129 679.691345,237.682129 676.754272,237.682129 673.817139,237.682129 670.880066,237.682129 667.942993,237.682129 665.005859,237.682129 662.068787,237.682129 659.131653,237.682129 656.194580,237.682129 653.257507,237.682129 650.320312,237.682129 647.383240,237.682129 644.446167,237.682129 641.509033,237.682129 638.571899,237.682129 635.634827,237.682129 632.697693,237.682129 629.760620,237.682129 626.823547,237.682129 623.886414,237.682129 620.949341,237.682129 618.012207,237.682129 615.075134,237.682129 612.138062,237.682129 609.200928,237.682129 606.263855,237.682129 603.326721,237.682129 600.389648,237.682129 597.452576,237.682129 594.515442,237.682129 591.578369,237.682129 588.641235,237.682129 585.704163,237.682129 582.767090,237.682129 579.829956,237.682129 576.892883,237.682129 573.955750,237.682129 571.018677,237.682129 568.081604,237.682129 565.144470,237.682129 562.207397,237.682129 559.270264,237.682129 556.333191,237.682129 553.396118,237.682129 550.458984,237.682129 547.521851,237.682129 544.584778,237.682129 541.647705,237.682129 538.710632,237.682129 535.773438,237.682129 532.836365,237.682129 529.899292,237.682129 526.962219,237.682129 524.025146,237.682129 521.087952,237.682129 518.150879,237.682129 515.213806,237.682129 512.276733,237.682129 509.339569,237.682129 506.402435,237.682129 503.465363,237.682129 500.528290,237.682129 497.591156,237.682129 494.654083,237.682129 491.716949,237.682129 488.779877,237.682129 485.842743,237.682129 482.905670,237.682129 479.968597,237.682129 477.031464,237.682129 474.094391,237.682129 471.157257,237.682129 468.220184,237.682129 465.283051,237.682129 462.345978,237.682129 459.408844,237.682129 456.471771,237.682129 453.534637,237.682129 450.597565,237.682129 447.660461,237.682129 444.723358,237.682129 441.786285,237.682129 438.849152,237.682129 435.912048,237.682129 432.974976,237.682129 430.037872,237.682129 427.100769,237.682129 424.163666,237.682129 421.226562,237.682129 418.289490,237.682129 415.352356,237.682129 412.415253,237.682129 409.478149,237.682129 406.541077,237.682129 403.603973,237.682129 400.666840,237.682129 397.729767,237.682129 394.792664,237.682129 391.855560,237.682129 388.918488,237.682129 385.981354,237.682129 383.044281,237.682129 380.107147,237.682129 377.170074,237.682129 374.232941,237.682129 371.295868,237.682129 368.358795,237.682129 365.421661,237.682129 362.484558,237.682129 359.547455,237.682129 356.610382,237.682129 353.673279,237.682129 350.736145,237.682129 347.799042,237.682129 344.861938,237.682129 341.924835,237.682129 338.987762,237.682129 336.050659,237.682129 333.113556,237.682129 330.176422,237.682129 327.239349,237.682129 324.302277,237.682129 321.365112,237.682129 318.428040,237.682129 315.490936,237.682129 312.553833,237.682129 309.616699,237.682129 306.679626,237.682129 303.742523,237.682129 300.805420,237.682129 297.868317,237.682129 294.931213,237.682129 291.994141,237.682129 289.057037,237.682129 286.119904,237.682129 283.182831,237.682129 280.245728,237.682129 277.308655,237.682129 274.371552,237.682129 271.434418,237.682129 268.497345,237.682129 265.560211,237.682129 262.623108,237.682129 259.686035,237.682129 256.748932,237.682129 253.811829,237.682129 250.874695,237.682129 247.937622,237.682129 245.000549,237.682129 242.063416,237.682129 239.126312,237.682129 236.189209,237.682129 233.252106,237.682129 230.314972,237.682129 227.377899,237.682129 224.440826,237.682129 221.503723,237.682129 218.566620,237.682129 215.629486,237.682129 212.692413,237.682129 209.755341,237.682129 206.818207,237.682129 203.881165,237.682129 200.944046,237.682129 198.006927,237.682129 195.069839,237.682129 192.132751,237.682129 189.195648,237.682129 186.258530,237.682129 183.321442,237.682129 180.384323,237.682129 177.447235,237.682129 174.510117,237.682129 171.573044,237.682129 168.635925,237.682129 165.698837,237.682129 162.761719,237.682129 159.824677,237.682129 156.887558,237.682129 153.950470,237.682129 151.013351,237.682129 148.076263,237.682129 145.139145,237.682129 142.202042,237.682129 139.264954,237.682129 136.327835,237.682129 133.390747,237.682129 130.453629,237.682129 127.516556,237.682129 124.579437,237.682129 121.642319,237.682129 118.705231,237.682129 115.768112,237.682129 112.831024,237.682129 109.893921,237.682129 106.956833,237.682129 104.019745,237.682129 101.082626,237.682129 98.145538,237.682129 95.208435,237.682129 92.271317,237.682129 89.334198,237.682129 86.397110,237.682129 83.460022,237.682129 80.522903,237.682129 77.585831,237.682129 74.648743,237.682129 71.711655,237.682129 68.774536,237.682129 65.837463,237.682129 62.900341,237.682129 59.963261,237.682129 57.026173,237.682129 54.089092,237.682129 51.151974,237.682129 48.214886,237.682129 45.277737,237.682129 42.340687,237.682129 39.403568,237.682129 36.466488,237.682129 34.206486,236.047485 32.129650,233.970581 30.052822,231.893738 27.975994,229.816895 25.899128,227.740112 23.822292,225.663208 21.745464,223.586365 19.668629,221.509521 17.591801,219.432739 15.514935,217.355835 13.438107,215.278992 11.361275,213.202148 10.000000,210.828979 10.000000,207.891846 10.000000,204.954712 10.000000,202.017639 10.000000,199.080566 10.000000,196.143433 10.000000,193.206360 10.000000,190.269287 10.000000,187.332153 10.000000,184.395020 10.000000,181.457947 10.000000,178.520874 10.000000,175.583740 10.000000,172.646667 10.000000,169.709534 10.000000,166.772461 10.000000,163.835327 10.000000,160.898254 10.000000,157.961182 10.000000,155.024048 10.000000,152.086914 10.000000,149.149841 10.000000,146.212769 10.000000,143.275635 10.000000,140.338501 10.000000,137.401459 10.000000,134.464355 10.000000,131.527252 10.000000,128.590149 10.000000,125.653046 10.000000,122.715942 10.000000,119.778839 10.000000,116.841766 10.000000,113.904633 10.000000,110.967560 10.000000,108.030457 10.000000,105.093353 10.000000,102.156250 10.000000,99.219177 10.000000,96.282043 10.000000,93.344940 10.000000,90.407867 10.000000,87.470764 10.000000,84.533630 10.000000,81.596588 10.000000,78.659454 10.000000,75.722351 10.000000,72.785278 10.000000,69.848175 10.000000,66.911041 10.000000,63.973969 10.000000,61.036865 10.000000,58.099731 10.000000,55.162689 10.000000,52.225555 10.000000,49.288452 10.000000,46.351379 10.000000,43.414246 10.000000,40.477173 10.000000,37.540039 11.085129,36.290649 13.659035,37.356812 16.232975,38.422974 18.806911,39.489136 21.380787,40.555237 23.954693,41.621399 26.528629,42.687622 29.102596,43.753723 31.676502,44.819885 34.250408,45.886047 36.824314,46.952209 38.308720,47.567078" />
				<polyline stroke="#000000" stroke-opacity="1" fill="none" stroke-linecap="round" stroke-width="2" points="920.728699,211.840942 918.154785,210.774780 915.580933,209.708618 913.006897,208.642456 910.433044,207.576294 907.859070,206.510132 905.285156,205.443970 902.711304,204.377808 900.137329,203.311646 897.563416,202.245544 894.989563,201.179443 892.419983,200.115051" />
				<polyline stroke="#000000" stroke-opacity="1" fill="none" stroke-linecap="round" stroke-width="2" points="920.728699,35.841187 918.154785,36.907349 915.580933,37.973511 913.006897,39.039673 910.433044,40.105835 907.859070,41.171936 905.285156,42.238098 902.711304,43.304321 900.137329,44.370483 897.563416,45.436584 894.989563,46.502747 892.419983,47.567078" />
				<polyline stroke="#000000" stroke-opacity="1" fill="none" stroke-linecap="round" stroke-width="2" points="819.498535,117.296234 819.582581,114.360352 819.726135,111.426910 820.019043,108.505157 820.679993,105.649078 822.669861,103.647278 825.567810,103.268250 828.504883,103.268250 831.441956,103.268250 834.379150,103.268250 837.316223,103.268250 840.253296,103.268250 843.190430,103.268250 846.103577,103.555359 848.428772,105.213379 849.191223,108.020081 849.213074,110.956726 850.138123,110.459015 851.904114,108.115692 854.012146,106.078888 856.440308,104.437347 859.118835,103.241180 861.963989,102.523712 864.879150,102.195068 867.809570,102.263489 870.595032,103.147095 872.909302,104.929779 874.469849,107.397980 875.135864,110.246552 875.085266,113.177917 874.495544,116.050873 874.426758,116.287506" />
				<polyline stroke="#000000" stroke-opacity="1" fill="none" stroke-linecap="round" stroke-width="2" points="874.426758,116.287506 873.332458,119.010193 871.781921,121.495636 869.497925,123.303497 866.652222,123.917480 863.824097,123.192963 861.205933,121.865753 858.550903,120.616943 855.681885,120.098969 852.884521,120.922577 850.610535,122.734253 849.644653,125.474518 849.583801,128.409576 849.570557,131.346649 849.540100,134.283569 849.491089,137.220276 849.410889,140.156250 849.285767,143.090576 849.068848,146.019348 847.963562,148.686646 845.529114,150.239014 842.635010,150.701965 839.702148,150.857666 836.765930,150.921997 833.829163,150.889038 830.893494,150.797913 827.958801,150.679688 825.024841,150.544678 822.228882,149.754211 820.350098,147.555298 819.895325,144.666870 819.699524,141.736389 819.570557,138.802124 819.487244,135.866241 819.436523,132.929596 819.410400,129.992615 819.406128,127.055542 819.414551,124.118439 819.438049,121.181427 819.480347,118.244659 819.498535,117.296234" />
				<polyline stroke="#000000" stroke-opacity="1" fill="none" stroke-linecap="round" stroke-width="2" points="784.118896,102.158325 787.052002,102.303436 789.971863,102.616150 792.867554,103.103973 795.727051,103.772644 798.530518,104.645844 801.231812,105.794189 803.740295,107.314728 805.868713,109.329224 807.626343,111.677856 808.946350,114.296082 809.764465,117.111481 810.053223,120.030304 809.709351,122.935913 808.515076,125.593475 806.493896,127.696594 803.959839,129.166504 801.176758,130.090973 798.298767,130.663910 795.380188,130.978760 792.446411,131.095917 789.509949,131.077332 786.577148,130.922638 783.652527,130.654114 780.739563,130.279327 778.416443,130.449432 778.726685,133.368683 779.426331,136.216736 780.835449,138.772247 783.246582,140.394775 786.104126,141.031433 789.038452,141.094971 791.971313,140.943542 794.891663,140.634827 797.785889,140.139160 800.641846,139.454315 803.466919,138.652222 806.223267,137.641571 809.004944,136.712128 811.905457,136.753021 814.257202,138.453430 815.282471,141.145935 814.709106,144.004211 812.990356,146.343018 810.390137,147.693237 807.610962,148.639526 804.776978,149.409058 801.912170,150.055054 799.026733,150.602661 796.127136,151.069397 793.217285,151.468140 790.299805,151.806091 787.373779,152.057800 784.441345,152.222229 781.505493,152.303101 778.568604,152.311890 775.634521,152.194458 772.711609,151.913147 769.817810,151.415100 766.964111,150.723999 764.184143,149.779907 761.491455,148.610474 758.931152,147.173950 756.522034,145.497925 754.305603,143.573547 752.374878,141.363525 750.774353,138.905945 749.553162,136.239563 748.727478,133.423981 748.305176,130.519440 748.213684,127.585663 748.449768,124.659760 749.028625,121.782318 749.972534,119.003571 751.259644,116.365631 752.872131,113.913361 754.813843,111.713104 757.035339,109.793976 759.433594,108.100342 761.972351,106.625305 764.621033,105.357758 767.358582,104.295990 770.172424,103.456848 773.045288,102.850647 775.956299,102.464020 778.885071,102.246735 781.820557,102.155121 784.118896,102.158325" />
				<polyline stroke="#000000" stroke-opacity="1" fill="none" stroke-linecap="round" stroke-width="2" points="783.731140,112.863586 781.123352,114.108337 779.526428,116.539764 778.758850,119.367371 778.715332,122.069824 781.642517,122.310638 784.572876,122.353546 787.393250,121.611389 789.180908,119.403381 789.155762,116.487457 787.873169,113.902344 785.206604,112.828186 783.731140,112.863586" />
				<polyline stroke="#000000" stroke-opacity="1" fill="none" stroke-linecap="round" stroke-width="2" points="723.106873,102.003265 726.016724,102.385040 728.835999,103.195496 731.487122,104.449158 733.898560,106.118774 736.023987,108.141754 737.799988,110.477203 739.184814,113.064758 740.203430,115.817871 740.907593,118.667633 741.360107,121.568237 741.595947,124.495148 741.656616,127.431061 741.545105,130.365540 741.226929,133.284515 740.666565,136.166351 739.813782,138.974976 738.641174,141.665833 737.112366,144.170166 735.184082,146.379089 732.853271,148.157959 730.297729,149.600098 727.580933,150.709717 724.748108,151.477905 721.844666,151.911865 718.911499,152.042358 715.981750,151.861206 713.103760,151.290710 710.352112,150.276672 707.818481,148.800049 705.611328,146.868896 703.724121,146.728821 703.696655,149.665771 703.621704,152.601929 703.501892,155.536499 703.343567,158.469360 703.148926,161.399902 702.633789,164.283386 700.834900,166.481079 697.962891,166.991577 695.025818,166.995605 692.088745,166.995605 689.151611,166.995605 686.214478,166.995605 683.277405,166.995605 680.340332,166.995605 677.432129,166.688477 675.263916,164.853149 674.547546,162.020630 674.441467,159.086426 674.394836,156.149658 674.359558,153.212769 674.332764,150.275818 674.313416,147.338745 674.300415,144.401733 674.293091,141.464600 674.290161,138.527527 674.306030,135.590485 674.323975,132.653412 674.342041,129.716370 674.359985,126.779358 674.377930,123.842285 674.395874,120.905243 674.413818,117.968231 674.431824,115.031158 674.449768,112.094116 674.467712,109.157074 674.757385,106.257629 676.749573,104.165588 679.513733,103.274078 682.450684,103.283173 685.387756,103.299133 688.324829,103.315094 691.261841,103.331055 694.198853,103.347015 697.135864,103.367645 699.945435,104.120728 702.005981,106.152802 702.907471,108.331329 705.248840,106.561981 707.800354,105.111206 710.501831,103.962616 713.305359,103.090057 716.171692,102.453918 719.082520,102.070129 722.016357,101.970612 723.106873,102.003265" />
				<polyline stroke="#000000" stroke-opacity="1" fill="none" stroke-linecap="round" stroke-width="2" points="706.623901,119.220551 704.584961,121.280426 704.004517,124.128784 704.004517,127.065918 704.004517,130.002991 704.252563,132.916504 705.884338,135.298798 708.518982,136.527344 711.414917,136.322052 713.642517,134.493774 714.711243,131.776520 715.088501,128.867920 715.074707,125.932281 714.654907,123.030090 713.506897,120.349426 711.195251,118.635254 708.290771,118.553101 706.623901,119.220551" />
				<polyline stroke="#000000" stroke-opacity="1" fill="none" stroke-linecap="round" stroke-width="2" points="657.003235,82.524200 659.879822,83.008453 661.731506,85.171051 662.364868,88.031677 662.529907,90.963379 662.639404,93.898376 662.728821,96.834106 662.799683,99.770386 662.855652,102.706940 662.899597,105.643677 662.932861,108.580597 662.956909,111.517578 662.972595,114.454651 662.980896,117.391754 662.982300,120.328827 662.975891,123.265930 662.959290,126.202972 662.930725,129.139923 662.887634,132.076721 662.827026,135.013153 662.744629,137.949097 662.631226,140.883972 662.474060,143.816772 662.242065,146.744629 660.949951,149.318848 658.375000,150.641907 655.465698,151.012878 652.531738,151.144653 649.595154,151.198669 646.658081,151.197021 643.721436,151.148560 640.786255,151.042480 637.881470,150.644897 635.241394,149.419189 633.932922,146.879456 633.654785,143.955750 633.461853,141.025085 633.317444,138.091583 633.211426,135.156433 633.132812,132.220367 633.074951,129.283875 633.034241,126.347046 633.007874,123.410095 632.993530,120.473022 632.989380,117.535919 632.994019,114.598846 633.008301,111.661774 633.032532,108.724762 633.068359,105.787903 633.117920,102.851227 633.186279,99.914917 633.276489,96.979218 633.393921,94.044495 633.553711,91.111816 633.777527,88.183411 634.359619,85.310791 636.100952,83.057617 638.965576,82.526154 641.902588,82.524200 644.839722,82.524200 647.776794,82.524200 650.713867,82.524200 653.651001,82.524200 656.588074,82.524200 657.003235,82.524200" />
				<polyline stroke="#000000" stroke-opacity="1" fill="none" stroke-linecap="round" stroke-width="2" points="597.702454,102.158325 600.635559,102.303436 603.555420,102.616150 606.451172,103.103973 609.310669,103.772644 612.114014,104.645844 614.815369,105.794189 617.323914,107.314728 619.452271,109.329224 621.209900,111.677856 622.529846,114.296082 623.348083,117.111511 623.636780,120.030365 623.292908,122.935944 622.098694,125.593506 620.077393,127.696594 617.543396,129.166504 614.760315,130.090973 611.882324,130.663910 608.963806,130.978760 606.029968,131.095917 603.093445,131.077332 600.160645,130.922638 597.236084,130.654114 594.323120,130.279327 592.000000,130.449463 592.310303,133.368713 593.009888,136.216766 594.419006,138.772278 596.830139,140.394775 599.687683,141.031433 602.622009,141.093811 605.551575,140.897095 608.444824,140.403198 611.245117,139.523804 613.959778,138.405243 616.577698,137.076233 619.430786,136.595428 621.712646,138.329987 622.789978,141.031006 622.804626,143.958618 621.626160,146.575195 619.132324,148.108948 616.412781,149.215820 613.608826,150.087646 610.753174,150.771240 607.863953,151.296753 604.954346,151.695312 602.030823,151.975220 599.100159,152.166260 596.165344,152.278564 593.228760,152.321167 590.292603,152.261841 587.365417,152.030457 584.456970,151.626465 581.589111,150.997192 578.775208,150.159180 576.052124,149.062378 573.434509,147.733643 570.968262,146.141235 568.680176,144.304077 566.626831,142.207642 564.895874,139.837830 563.537964,137.237762 562.575500,134.467407 562.000610,131.590332 561.797852,128.662079 561.906677,125.728882 562.359436,122.828735 563.165161,120.006653 564.335388,117.314880 565.828247,114.788147 567.649902,112.487854 569.782166,110.471558 572.120483,108.696259 574.610718,107.140839 577.221924,105.797852 579.929321,104.661224 582.717102,103.739227 585.569885,103.044617 588.469910,102.584106 591.393799,102.309570 594.327637,102.175995 597.264465,102.153870 597.702454,102.158325" />
				<polyline stroke="#000000" stroke-opacity="1" fill="none" stroke-linecap="round" stroke-width="2" points="597.314697,112.863586 594.706909,114.108337 593.109985,116.539764 592.342407,119.367371 592.298889,122.069824 595.226074,122.310638 598.156555,122.353546 600.976807,121.611389 602.764526,119.403351 602.739319,116.487427 601.456665,113.902313 598.790161,112.828186 597.314697,112.863586" />
				<polyline stroke="#000000" stroke-opacity="1" fill="none" stroke-linecap="round" stroke-width="2" points="507.683197,82.524200 510.561371,83.002930 512.440308,85.135834 513.047607,88.002380 513.230103,90.933136 513.318665,93.868866 513.384155,96.805237 513.437866,99.741852 513.483337,102.678589 513.523499,105.615417 513.559631,108.552307 515.069946,108.033051 517.378906,106.220154 519.894958,104.708282 522.579529,103.523773 525.392822,102.690796 528.287231,102.209412 531.218689,102.056213 534.152466,102.178894 537.064209,102.554321 539.921204,103.226654 542.674316,104.242676 545.252075,105.644073 547.574341,107.436035 549.570557,109.584076 551.156128,112.050903 552.268127,114.764923 552.938904,117.620605 553.215271,120.542023 553.272522,123.478424 553.310181,126.415253 553.340515,129.352203 553.362122,132.289215 553.374023,135.226318 553.375427,138.163391 553.365601,141.100464 553.337280,144.037476 553.236572,146.972046 552.201294,149.667969 549.551880,150.794067 546.620605,150.932617 543.683655,150.963257 540.746765,150.993835 537.809814,151.024414 534.872864,151.055054 531.935913,151.085632 528.999084,151.099915 526.138306,150.528381 524.393799,148.291138 524.228394,145.367920 524.240417,142.430908 524.252441,139.493805 524.264465,136.556732 524.276550,133.619629 524.288513,130.682587 524.300598,127.745514 524.312622,124.808441 524.064392,121.892181 522.520203,119.455536 519.822571,118.421387 516.970642,118.962494 514.755737,120.839752 513.869873,123.604858 513.785095,126.540497 513.712036,129.476715 513.638916,132.412903 513.565796,135.349060 513.492737,138.285278 513.419678,141.221436 513.346558,144.157593 513.199463,147.086914 511.571259,149.454956 508.914703,150.652893 505.995392,150.941101 503.059479,151.015869 500.122650,150.981079 497.185822,150.939148 494.249054,150.897217 491.312225,150.855225 488.386017,150.691895 485.791290,149.366638 484.352509,146.892944 484.307587,143.957153 484.289642,141.020081 484.271637,138.083069 484.253693,135.145996 484.235748,132.208954 484.217804,129.271942 484.199799,126.334869 484.181854,123.397827 484.163849,120.460785 484.145905,117.523743 484.136932,114.586670 484.142609,111.649597 484.154633,108.712494 484.173492,105.775452 484.198578,102.838501 484.229950,99.901550 484.268707,96.964691 484.314240,94.027985 484.366302,91.091309 484.435883,88.155182 484.949554,85.273315 486.758575,83.068695 489.621552,82.526703 492.558624,82.524200 495.495758,82.524200 498.432831,82.524200 501.369904,82.524200 504.306976,82.524200 507.244171,82.524200 507.683197,82.524200" />
				<polyline stroke="#000000" stroke-opacity="1" fill="none" stroke-linecap="round" stroke-width="2" points="413.415344,95.014343 413.415344,97.951385 413.415344,100.888519 413.415344,103.825592 413.415344,106.762726 413.415344,109.699799 413.415344,112.636902 413.415344,115.574036 413.415344,118.511108 413.415344,121.448212 413.415344,124.385315 413.415344,127.322418 413.415344,130.259521 413.415344,133.196625 413.415344,136.133698 413.415344,139.070831 413.415344,142.007935 413.415344,144.945007 413.415344,147.882080 413.415344,150.819214 410.489166,150.830200 407.552063,150.830200 404.614990,150.830200 401.677856,150.830200 398.740784,150.830200 395.803650,150.830200 392.866577,150.830200 389.929504,150.830200 386.992371,150.830200 384.055267,150.830200 381.118164,150.830200 378.181091,150.830200 375.243988,150.830200 372.306854,150.830200 369.369781,150.830200 366.432648,150.830200 363.495575,150.830200 360.558441,150.830200 357.621368,150.830200 354.684265,150.830200 351.747162,150.830200 348.810059,150.830200 346.667542,150.035645 346.667542,147.098511 346.667542,144.161377 346.667542,141.224304 346.667542,138.287201 349.113373,137.795959 352.050507,137.795959 354.987579,137.795959 357.924713,137.795959 360.861786,137.795959 363.798889,137.795959 366.735992,137.795959 369.673065,137.795959 372.610199,137.795959 375.547302,137.795959 378.484375,137.795959 381.421478,137.795959 384.358582,137.795959 387.295715,137.795959 390.184967,137.748169 390.184967,134.811035 390.184967,131.873932 390.184967,128.936859 390.184967,125.999725 390.184967,123.062653 390.184937,120.125549 390.184937,117.188446 390.184967,114.251343 390.184937,111.314240 390.184967,108.377136 390.184967,105.440063 390.184967,102.502930 390.184967,99.565857 390.184967,96.628754 391.507660,95.014343 394.444733,95.014343 397.381866,95.014343 400.318970,95.014343 403.256042,95.014343 406.193146,95.014343 409.130219,95.014343 412.067352,95.014343 413.415344,95.014343" />
				<polyline stroke="#000000" stroke-opacity="1" fill="none" stroke-linecap="round" stroke-width="2" points="439.010681,95.014343 440.934601,97.233551 442.858551,99.452789 444.782501,101.672028 446.706451,103.891266 448.630371,106.110504 450.310516,108.420685 450.310516,111.357819 450.310516,114.294891 450.310516,117.231995 450.310516,120.169098 449.706116,122.501770 446.769043,122.501770 443.831909,122.501770 440.894836,122.501770 437.957703,122.501770 435.020630,122.501770 432.083527,122.501770 429.146423,122.501770 427.027618,121.683502 427.027618,118.746368 427.027618,115.809296 427.027618,112.872162 427.027618,109.935089 425.083588,108.941986 422.146515,108.941986 419.209412,108.941986 417.146851,108.067444 417.146851,105.130341 417.606384,102.382690 419.676239,100.298859 421.746094,98.215057 423.815948,96.131226 426.288177,95.014343 429.225311,95.014343 432.162384,95.014343 435.099487,95.014343 438.036591,95.014343 439.010681,95.014343" />
				<polyline stroke="#000000" stroke-opacity="1" fill="none" stroke-linecap="round" stroke-width="2" points="342.988495,95.014343 342.988495,97.951385 342.988495,100.888519 342.988495,103.825592 342.988495,106.762726 342.988495,109.699799 342.988495,112.636902 342.988495,115.574036 342.988495,118.511108 342.988495,121.448212 342.988495,124.385315 342.988495,127.322418 342.988495,130.259521 342.988495,133.196625 342.988495,136.133698 342.988495,139.070831 342.988495,142.007935 342.988495,144.945007 342.988495,147.882080 342.988495,150.819214 340.062378,150.830200 337.125244,150.830200 334.188141,150.830200 331.964203,149.108521 329.887360,147.031616 327.810486,144.954834 325.733643,142.877930 323.656830,140.801147 321.579987,138.724243 319.758179,136.541779 319.758209,133.604675 319.758240,130.667572 319.758209,127.730469 319.758179,124.793365 319.758179,121.856262 319.758179,118.919189 319.758179,115.982056 319.758179,113.044983 319.758179,110.107880 321.010651,107.689575 323.087494,105.612701 325.164307,103.535858 327.241180,101.459015 329.317993,99.382202 331.394836,97.305328 333.471710,95.228516 336.320099,95.014343 339.257172,95.014343 342.194244,95.014343 342.988495,95.014343" />
				<polyline stroke="#000000" stroke-opacity="1" fill="none" stroke-linecap="round" stroke-width="2" points="366.376495,95.014343 368.453369,97.091156 370.530182,99.167999 372.607025,101.244843 374.683899,103.321686 376.760712,105.398529 378.837555,107.475342 380.304199,109.804962 380.304199,112.742065 380.304199,115.679169 380.304199,118.616241 380.304199,121.553375 380.304199,124.490448 380.304199,127.427582 378.380280,128.440735 375.443207,128.440735 372.506073,128.440735 369.569000,128.440735 366.631897,128.440735 363.694794,128.440735 360.757721,128.440735 357.820587,128.440735 354.883514,128.440735 351.946411,128.440735 349.009308,128.440735 346.667542,127.845428 346.667542,124.908356 346.667542,121.971222 346.667542,119.034149 349.288147,118.717651 352.225220,118.717651 355.162323,118.717651 358.099457,118.717651 358.913391,116.594513 358.913391,113.657410 358.913391,110.720306 357.754578,108.941986 354.817505,108.941986 351.880371,108.941986 348.943298,108.941986 346.667542,108.280670 346.667542,105.343567 346.667542,102.406464 346.667542,99.469360 346.667542,96.532257 348.086700,95.014343 351.023773,95.014343 353.960876,95.014343 356.897980,95.014343 359.835083,95.014343 362.772186,95.014343 365.709259,95.014343 366.376495,95.014343" />
				<polyline stroke="#000000" stroke-opacity="1" fill="none" stroke-linecap="round" stroke-width="2" points="274.453796,95.014343 275.438690,97.781342 276.423584,100.548431 277.408447,103.315460 278.393341,106.082520 279.378174,108.849548 280.363068,111.616608 281.347961,114.383667 282.332855,117.150696 283.317719,119.917755 284.302612,122.684814 285.287506,125.451843 286.272339,128.218903 287.257233,130.985962 288.242096,133.753021 289.226990,136.520050 290.211884,139.287079 291.196777,142.054138 292.181641,144.821167 293.166534,147.588257 294.151428,150.355286 291.887360,150.830200 288.950287,150.830200 286.013184,150.830200 283.076111,150.830200 280.139008,150.830200 277.201874,150.830200 274.264801,150.830200 271.924713,149.969604 270.896240,147.218506 269.867828,144.467285 268.839325,141.716187 267.810913,138.965027 266.782440,136.213867 265.754028,133.462708 264.725555,130.711548 263.697144,127.960388 262.668671,125.209259 261.640259,122.458069 260.611755,119.706940 259.583344,116.955780 258.554901,114.204620 257.526459,111.453461 256.498016,108.702332 255.469574,105.951141 254.441162,103.200012 253.412720,100.448822 252.384277,97.697693 251.453491,95.014343 254.390564,95.014343 257.327728,95.014343 260.264801,95.014343 263.201904,95.014343 266.139008,95.014343 269.076141,95.014343 272.013214,95.014343 274.453796,95.014343" />
				<polyline stroke="#000000" stroke-opacity="1" fill="none" stroke-linecap="round" stroke-width="2" points="315.501038,95.014343 314.513702,97.780487 313.526337,100.546661 312.539032,103.312836 311.551697,106.079010 310.564362,108.845184 309.577026,111.611359 308.589722,114.377563 307.602386,117.143738 306.615082,119.909912 305.627716,122.676086 304.640411,125.442261 303.653076,128.208435 302.665741,130.974609 301.678406,133.740784 300.691071,136.506958 299.703766,139.273132 298.716431,142.039307 297.729095,144.805542 296.741760,147.571655 295.765137,145.116882 294.789185,142.346680 293.813202,139.576508 292.837189,136.806305 291.861267,134.036072 290.885254,131.265900 289.909271,128.495697 288.933319,125.725464 287.957306,122.955292 286.981323,120.185089 286.533386,117.408234 287.439270,114.614349 288.345245,111.820465 289.251221,109.026581 290.157196,106.232697 291.063141,103.438812 291.969086,100.644897 292.875061,97.851044 293.781006,95.057129 296.686981,95.014343 299.624054,95.014343 302.561157,95.014343 305.498260,95.014343 308.435364,95.014343 311.372467,95.014343 314.309540,95.014343 315.501038,95.014343" />
				<polyline stroke="#000000" stroke-opacity="1" fill="none" stroke-linecap="round" stroke-width="2" points="214.591034,95.014343 214.591034,97.951385 214.591034,100.888519 214.591034,103.825592 214.591034,106.762726 214.591034,109.699799 214.591034,112.636902 214.591034,115.574036 214.591034,118.511108 214.591034,121.448212 214.591034,124.385315 214.591034,127.322418 214.591034,130.259521 214.591034,133.196625 214.591034,136.133698 214.591034,139.070831 214.591034,142.007935 214.591034,144.945007 214.591034,147.882080 214.591034,150.819214 211.664917,150.830200 208.727844,150.830200 205.790710,150.830200 202.853592,150.830200 199.916473,150.830200 196.979355,150.830200 194.042282,150.830200 191.360718,150.574585 191.360718,147.637573 191.360718,144.700439 191.360718,141.763306 191.360718,138.826233 191.360718,135.889130 191.360718,132.952026 191.360718,130.014954 191.360718,127.077820 191.360718,124.140747 191.360718,121.203613 191.360718,118.266541 191.360718,115.329437 191.360718,112.392334 191.360718,109.455231 191.360718,106.518127 191.360718,103.581024 191.360718,100.643921 191.360718,97.706848 191.605301,95.014343 194.542419,95.014343 197.479507,95.014343 200.416595,95.014343 203.353699,95.014343 206.290787,95.014343 209.227875,95.014343 212.164978,95.014343 214.591034,95.014343" />
				<polyline stroke="#000000" stroke-opacity="1" fill="none" stroke-linecap="round" stroke-width="2" points="240.186432,95.014343 242.110382,97.233551 244.034302,99.452789 245.958221,101.672028 247.882172,103.891266 249.806122,106.110504 251.486267,108.420685 251.486267,111.357819 251.486267,114.294891 251.486267,117.231995 251.486267,120.169098 250.881805,122.501770 247.944733,122.501770 245.007660,122.501770 242.070557,122.501770 239.133484,122.501770 236.196350,122.501770 233.259277,122.501770 230.322174,122.501770 228.203400,121.683502 228.203400,118.746368 228.203400,115.809296 228.203400,112.872162 228.203400,109.935089 226.259338,108.941986 223.322235,108.941986 220.385132,108.941986 218.322601,108.067413 218.322601,105.130341 218.782166,102.382690 220.852020,100.298859 222.921844,98.215027 224.991669,96.131195 227.463959,95.014343 230.401062,95.014343 233.338165,95.014343 236.275238,95.014343 239.212311,95.014343 240.186432,95.014343" />
				<polyline stroke="#000000" stroke-opacity="1" fill="none" stroke-linecap="round" stroke-width="2" points="144.164261,95.014343 144.164261,97.951385 144.164230,100.888519 144.164230,103.825592 144.164230,106.762726 144.164230,109.699799 144.164230,112.636902 144.164230,115.574036 144.164261,118.511108 144.164230,121.448212 144.164230,124.385315 144.164230,127.322418 144.164230,130.259521 144.164261,133.196625 144.164261,136.133698 144.164291,139.070831 144.164291,142.007935 144.164291,144.945007 144.164261,147.882080 144.164261,150.819214 141.238144,150.830200 138.301025,150.830200 135.363937,150.830200 133.139954,149.108521 131.063095,147.031616 128.986267,144.954834 126.909363,142.877991 124.832504,140.801147 122.755676,138.724243 120.933975,136.541718 120.933975,133.604645 120.933975,130.667511 120.933975,127.730438 120.933975,124.793335 120.933975,121.856232 120.933945,118.919128 120.933945,115.982056 120.933945,113.044922 120.933945,110.107819 118.479446,109.625244 115.542328,109.625244 112.605240,109.625244 109.668152,109.625244 106.731033,109.625244 103.793915,109.625244 100.856842,109.625244 97.919754,109.625244 94.982635,109.625244 92.045547,109.625244 89.108429,109.625244 89.084229,106.712372 87.596497,105.262970 84.659409,105.262970 81.722321,105.262970 78.785202,105.262970 77.416489,103.694580 77.416489,100.757507 77.416489,97.820404 77.547546,95.014343 80.484634,95.014343 83.421707,95.014343 86.358795,95.014343 89.295883,95.014343 92.232971,95.014343 95.170090,95.014343 98.107162,95.014343 101.044281,95.014343 103.981369,95.014343 106.918518,95.014343 109.855606,95.014343 112.792679,95.014343 115.729797,95.014343 118.666885,95.014343 121.604004,95.014343 124.541092,95.014343 127.478210,95.014343 130.415283,95.014343 133.352402,95.014343 136.289490,95.014343 139.226608,95.014343 142.163696,95.014343 144.164261,95.014343" />
				<polyline stroke="#000000" stroke-opacity="1" fill="none" stroke-linecap="round" stroke-width="2" points="167.552231,95.014343 169.629089,97.091156 171.705917,99.167969 173.782761,101.244812 175.859589,103.321686 177.936417,105.398529 180.013275,107.475342 181.479996,109.804932 181.479996,112.742004 181.479996,115.679108 181.479965,118.616211 181.479965,121.553314 181.479965,124.490387 181.479965,127.427521 179.556122,128.440735 176.619034,128.440735 173.681915,128.440735 170.744827,128.440735 167.807709,128.440735 164.870636,128.440735 161.933517,128.440735 158.996429,128.440735 156.059311,128.440735 153.122223,128.440735 150.185150,128.440735 147.843262,127.845551 147.843262,124.908447 147.843262,121.971344 147.843262,119.034210 150.463776,118.717651 153.400848,118.717651 156.337967,118.717651 159.275055,118.717651 160.089172,116.594604 160.089172,113.657532 160.089172,110.720428 158.930450,108.941986 155.993362,108.941986 153.056213,108.941986 150.119125,108.941986 147.843262,108.280762 147.843262,105.343689 147.843262,102.406555 147.843262,99.469482 147.843262,96.532379 149.262268,95.014343 152.199417,95.014343 155.136475,95.014343 158.073593,95.014343 161.010666,95.014343 163.947784,95.014343 166.884872,95.014343 167.552231,95.014343" />
				<polyline stroke="#000000" stroke-opacity="1" fill="none" stroke-linecap="round" stroke-width="2" points="179.062302,137.795959 179.062302,140.733032 179.062302,143.670166 177.112976,145.804077 175.043976,147.888794 172.975006,149.973450 170.394638,150.830200 167.457520,150.830200 164.520447,150.830200 161.583328,150.830200 158.646240,150.830200 155.709152,150.830200 152.772034,150.830200 149.834961,150.830200 147.843262,149.884766 147.843262,146.947632 147.843262,144.010620 147.843262,141.073486 147.843262,138.136383 150.439987,137.795959 153.377060,137.795959 156.314148,137.795959 159.251266,137.795959 162.188354,137.795959 165.125473,137.795959 168.062546,137.795959 170.999695,137.795959 173.936783,137.795959 176.873871,137.795959 179.062302,137.795959" />
				<polyline stroke="#000000" stroke-opacity="1" fill="none" stroke-linecap="round" stroke-width="2" points="73.737488,95.014343 73.737518,97.951416 73.737488,100.888519 73.737488,103.825592 73.737488,106.762726 73.737488,109.699799 73.737488,112.636902 74.588181,114.723297 77.525330,114.723297 80.462372,114.723297 83.399490,114.723297 86.336578,114.723297 89.273697,114.723297 92.210815,114.723297 95.147888,114.723297 98.085007,114.723297 100.786606,115.288391 102.854431,117.374237 104.922256,119.460052 106.990112,121.545837 109.057968,123.631653 111.125793,125.717499 112.314545,128.165192 112.314545,131.102295 112.314545,134.039398 112.314545,136.976501 110.820190,139.296387 108.747528,141.377441 106.674911,143.458435 104.602249,145.539429 102.529602,147.620483 100.456940,149.701538 97.988708,150.830200 95.051620,150.830200 92.114532,150.830200 89.177429,150.830200 89.084183,147.986328 89.084183,145.049194 89.084183,142.112061 89.084229,139.174988 89.084229,136.237885 89.084229,133.300812 89.084183,130.363678 86.756119,129.754669 83.819031,129.754669 80.881912,129.754669 77.944870,129.754669 75.007751,129.754669 72.070663,129.754669 69.133575,129.754669 66.196457,129.754669 63.455273,129.267975 61.337421,127.232971 59.219570,125.197968 57.101719,123.162994 54.983837,121.127991 52.865955,119.092987 51.873661,116.578583 51.873661,113.641479 51.873661,110.704407 51.873661,107.767273 53.781712,105.622894 55.862919,103.550385 57.944088,101.477905 60.025265,99.405426 62.106464,97.332947 64.187668,95.260437 67.023102,95.014343 69.960220,95.014343 72.897308,95.014343 73.737488,95.014343" />
				<polyline stroke="#000000" stroke-opacity="1" fill="none" stroke-linecap="round" stroke-width="2" points="75.103989,134.852753 75.103989,137.789856 75.249435,140.581543 78.186554,140.581543 81.123627,140.581543 84.060776,140.581543 85.405243,142.174133 85.405212,145.111267 85.405212,148.048340 85.249908,150.830200 82.312790,150.830200 79.375641,150.830200 76.438538,150.830200 73.501450,150.830200 70.564331,150.830200 67.627243,150.830200 64.690125,150.830200 61.753048,150.830200 59.770428,148.781555 57.881077,146.532837 55.991726,144.284058 54.102375,142.035278 52.212986,139.786560 51.821095,136.992218 52.618687,134.852753 55.555805,134.852753 58.492886,134.852753 61.430004,134.852753 64.367096,134.852753 67.304199,134.852753 70.241287,134.852753 73.178375,134.852753 75.103989,134.852753" />
			</g>
		</g>
	</g>
</svg>
